{"glyphs":{"C":{"ha":903,"x_min":54,"x_max":849,"o":"m 54 475 q 165 827 54 705 q 483 949 277 949 q 613 932 556 949 q 708 879 670 914 l 768 939 l 814 800 l 814 651 l 768 651 q 658 829 730 779 q 483 879 586 879 q 320 831 388 879 q 218 690 252 784 q 184 475 184 597 q 218 259 184 353 q 320 118 252 165 q 483 71 388 71 q 673 114 594 71 q 806 266 751 157 l 849 222 q 716 57 806 114 q 483 0 627 0 q 165 123 277 0 q 54 475 54 247 z "},"K":{"ha":994,"x_min":54,"x_max":940,"o":"m 54 0 l 54 35 l 168 71 l 168 879 l 54 914 l 54 949 l 412 949 l 412 914 l 298 879 l 298 480 l 703 884 l 613 914 l 613 949 l 905 949 l 905 914 l 844 884 l 510 551 l 873 68 l 940 35 l 940 0 l 642 0 l 642 35 l 708 68 l 434 472 l 298 336 l 298 71 l 412 35 l 412 0 l 54 0 z "},"M":{"ha":1270,"x_min":54,"x_max":1215,"o":"m 54 0 l 54 35 l 168 71 l 168 879 l 54 914 l 54 949 l 385 949 l 635 201 l 884 949 l 1215 949 l 1215 914 l 1101 879 l 1101 71 l 1215 35 l 1215 0 l 857 0 l 857 35 l 971 71 l 971 879 l 640 0 l 629 0 l 298 879 l 298 71 l 412 35 l 412 0 l 54 0 z "},"N":{"ha":1080,"x_min":54,"x_max":1025,"o":"m 54 0 l 54 35 l 168 71 l 168 879 l 54 914 l 54 949 l 353 949 l 781 92 l 781 879 l 667 914 l 667 949 l 1025 949 l 1025 914 l 911 879 l 911 71 l 1025 35 l 1025 0 l 727 0 l 298 857 l 298 71 l 412 35 l 412 0 l 54 0 z "},"P":{"ha":822,"x_min":54,"x_max":768,"o":"m 54 0 l 54 35 l 168 71 l 168 879 l 54 914 l 54 949 l 480 949 q 640 922 578 949 q 735 836 703 895 q 768 694 768 776 q 735 553 768 613 q 640 467 703 494 q 480 439 578 439 l 298 439 l 298 71 l 412 35 l 412 0 l 54 0 m 298 510 l 480 510 q 583 534 553 510 q 625 595 613 557 q 637 694 637 632 q 625 794 637 757 q 583 855 613 831 q 480 879 553 879 l 298 879 l 298 510 z "},"S":{"ha":713,"x_min":54,"x_max":659,"o":"m 366 0 q 221 15 277 0 q 119 60 165 30 l 90 0 l 54 0 l 54 239 l 95 239 q 217 104 141 137 q 366 71 293 71 q 453 95 412 71 q 510 159 494 119 q 526 222 526 198 q 517 290 526 260 q 486 347 507 320 q 329 466 431 412 q 146 567 227 519 q 94 610 111 589 q 65 665 76 632 q 54 743 54 697 q 95 846 54 789 q 206 926 136 903 q 334 949 277 949 q 439 931 388 949 q 532 879 491 913 l 551 949 l 586 949 l 586 700 l 532 700 l 532 735 q 503 803 532 764 q 423 861 475 842 q 331 879 372 879 q 262 862 298 880 q 206 814 225 844 q 187 755 187 784 q 193 718 187 738 q 222 678 198 697 q 380 589 255 654 q 578 448 505 524 q 644 340 629 399 q 659 237 659 282 q 621 121 659 179 q 514 31 583 62 q 366 0 445 0 z "},"T":{"ha":879,"x_min":54,"x_max":825,"o":"m 260 0 l 260 35 l 374 71 l 374 879 l 157 879 l 90 743 l 54 743 l 54 949 l 825 949 l 825 743 l 789 743 l 722 879 l 505 879 l 505 71 l 618 35 l 618 0 l 260 0 z "},"a":{"ha":624,"x_min":54,"x_max":570,"o":"m 273 0 q 108 58 159 1 q 54 191 57 114 q 114 337 57 289 q 252 388 171 385 q 400 326 357 384 l 400 395 q 370 509 397 472 q 282 548 343 545 q 205 524 239 547 q 161 450 171 500 l 65 450 q 142 568 81 519 q 282 618 202 617 q 457 568 391 616 q 530 395 524 519 l 530 75 l 570 35 l 570 0 l 461 0 l 400 31 q 273 0 363 1 m 273 71 q 363 91 328 73 q 400 151 397 109 l 400 226 q 357 290 393 266 q 252 317 321 315 q 181 282 210 315 q 149 193 152 250 q 182 107 152 141 q 273 71 213 73 z "},"b":{"ha":825,"x_min":54,"x_max":770,"o":"m 54 0 l 54 35 l 168 71 l 168 876 l 130 914 l 95 914 l 95 949 l 298 949 l 298 534 q 378 599 334 579 q 488 618 423 618 q 653 570 586 618 q 745 448 720 521 q 770 309 770 374 q 745 171 770 244 q 653 49 720 98 q 488 0 586 0 q 368 19 415 0 q 298 71 320 38 l 263 0 l 54 0 m 488 71 q 576 105 540 71 q 626 196 612 140 q 640 309 640 252 q 626 422 640 366 q 576 513 612 479 q 488 548 540 548 q 369 518 422 548 q 298 437 316 488 l 298 168 q 374 95 323 119 q 488 71 426 71 z "},"c":{"ha":673,"x_min":54,"x_max":621,"o":"m 363 0 q 202 37 277 0 q 91 148 127 73 q 54 309 54 222 q 91 471 54 396 q 202 582 127 545 q 363 618 277 618 q 549 557 491 618 q 608 426 608 496 q 597 382 608 400 q 570 355 587 365 q 526 345 552 345 q 483 355 500 345 q 455 382 465 365 q 445 426 445 400 q 460 477 445 457 q 495 503 475 496 q 439 537 477 527 q 363 548 401 548 q 268 519 311 548 q 205 435 225 491 q 184 309 184 380 q 205 183 184 239 q 268 99 225 127 q 363 71 311 71 q 449 83 407 71 q 529 127 492 95 l 583 182 l 621 144 l 567 90 q 508 42 543 64 q 436 10 474 20 q 363 0 399 0 z "},"d":{"ha":825,"x_min":54,"x_max":770,"o":"m 336 0 q 172 49 239 0 q 79 171 104 98 q 54 309 54 244 q 79 448 54 374 q 172 570 104 521 q 336 618 239 618 q 446 599 401 618 q 526 534 491 579 l 526 876 l 488 914 l 453 914 l 453 949 l 656 949 l 656 71 l 770 35 l 770 0 l 562 0 l 526 71 q 457 19 505 38 q 336 0 410 0 m 336 71 q 450 95 399 71 q 526 168 502 119 l 526 437 q 456 518 509 488 q 336 548 403 548 q 249 513 285 548 q 199 422 213 479 q 184 309 184 366 q 199 196 184 252 q 249 105 213 140 q 336 71 285 71 z "},"g":{"ha":898,"x_min":54,"x_max":844,"o":"m 225 38 q 178 78 193 53 q 160 141 163 103 q 182 212 161 187 q 236 244 202 236 q 178 319 198 279 q 155 423 157 358 q 240 569 160 521 q 431 618 320 617 q 545 604 494 616 q 646 553 595 591 l 686 513 q 822 591 727 587 l 844 515 q 746 429 770 511 q 765 327 764 388 q 693 182 755 222 q 534 136 631 141 q 429 149 477 137 q 334 187 380 160 q 293 165 307 179 q 279 132 279 152 q 328 71 282 81 l 420 60 q 600 38 529 54 q 782 -47 732 5 q 833 -176 831 -100 q 722 -334 827 -279 q 444 -393 616 -389 q 165 -334 271 -389 q 54 -176 60 -279 q 98 -44 57 -104 q 225 38 138 16 m 534 220 q 648 327 643 222 q 620 430 646 382 q 524 515 594 477 q 388 532 450 551 q 320 492 342 518 q 296 423 298 465 q 313 330 297 365 q 350 277 328 296 q 437 233 392 243 q 534 220 483 222 m 339 -11 q 237 -64 269 -19 q 202 -176 205 -110 q 273 -280 206 -252 q 444 -312 339 -308 q 636 -275 553 -309 q 722 -176 719 -241 q 694 -104 720 -134 q 610 -49 669 -73 q 420 -11 521 -14 l 339 -11 z "},"h":{"ha":903,"x_min":54,"x_max":849,"o":"m 54 0 l 54 35 l 168 71 l 168 879 l 133 914 l 98 914 l 98 949 l 298 949 l 298 524 q 371 592 321 566 q 483 618 420 618 q 616 600 559 618 q 704 526 673 581 q 735 407 735 472 l 735 71 l 849 35 l 849 0 l 534 0 l 605 71 l 605 407 q 572 511 602 475 q 483 548 543 548 q 382 527 426 548 q 298 431 339 506 l 298 71 l 369 0 l 54 0 z "},"i":{"ha":467,"x_min":54,"x_max":412,"o":"m 54 -1 l 54 34 l 168 69 l 168 538 l 125 582 l 125 617 l 251 617 l 298 593 l 298 69 l 412 34 l 412 -1 l 54 -1 m 233 716 q 184 735 203 716 q 165 784 165 754 q 184 833 165 814 q 233 852 203 852 q 282 833 263 852 q 301 784 301 814 q 282 735 301 754 q 233 716 263 716 z "},"k":{"ha":901,"x_min":54,"x_max":846,"o":"m 54 0 l 54 35 l 168 71 l 168 873 l 127 914 l 92 914 l 92 949 l 298 949 l 298 400 l 566 579 l 528 617 l 814 617 l 814 564 l 704 564 l 476 411 l 732 71 l 846 35 l 846 0 l 543 0 l 613 71 l 395 357 l 298 292 l 298 71 l 369 0 l 54 0 z "},"l":{"ha":467,"x_min":54,"x_max":412,"o":"m 54 0 l 54 35 l 168 71 l 168 873 l 127 914 l 92 914 l 92 949 l 298 949 l 298 71 l 412 35 l 412 0 l 54 0 z "},"m":{"ha":1340,"x_min":54,"x_max":1286,"o":"m 54 0 l 54 35 l 168 71 l 168 548 l 133 583 l 98 583 l 98 617 l 298 617 l 298 524 q 371 592 321 566 q 483 618 420 618 q 587 608 540 618 q 666 572 635 597 q 720 493 697 548 q 735 524 726 508 q 808 592 758 566 q 920 618 857 618 q 1053 600 996 618 q 1141 526 1110 581 q 1172 407 1172 472 l 1172 71 l 1286 35 l 1286 0 l 971 0 l 1042 71 l 1042 407 q 1009 511 1039 475 q 920 548 979 548 q 819 527 863 548 q 736 433 776 506 l 734 429 l 735 407 l 735 71 l 806 0 l 534 0 l 605 71 l 605 407 q 572 511 602 475 q 483 548 543 548 q 382 527 426 548 q 298 431 339 506 l 298 71 l 369 0 l 54 0 z "},"n":{"ha":903,"x_min":54,"x_max":849,"o":"m 54 0 l 54 35 l 168 71 l 168 548 l 133 583 l 98 583 l 98 617 l 298 617 l 298 524 q 371 592 321 566 q 483 618 420 618 q 616 600 559 618 q 704 526 673 581 q 735 407 735 472 l 735 71 l 849 35 l 849 0 l 534 0 l 605 71 l 605 407 q 572 511 602 475 q 483 548 543 548 q 382 527 426 548 q 298 431 339 506 l 298 71 l 369 0 l 54 0 z "},"o":{"ha":727,"x_min":54,"x_max":673,"o":"m 363 0 q 202 37 277 0 q 91 148 127 73 q 54 309 54 222 q 91 471 54 396 q 202 582 127 545 q 363 618 277 618 q 525 582 450 618 q 636 471 600 545 q 673 309 673 396 q 636 148 673 222 q 525 37 600 73 q 363 0 450 0 m 363 71 q 459 99 416 71 q 522 183 502 127 q 543 309 543 239 q 522 435 543 380 q 459 519 502 491 q 363 548 416 548 q 268 519 311 548 q 205 435 225 491 q 184 309 184 380 q 205 183 184 239 q 268 99 225 127 q 363 71 311 71 z "},"p":{"ha":825,"x_min":54,"x_max":770,"o":"m 488 0 q 368 19 415 0 q 298 71 320 38 l 298 -258 l 412 -296 l 412 -331 l 54 -331 l 54 -296 l 168 -258 l 168 548 l 54 583 l 54 617 l 256 617 l 298 534 q 378 599 334 579 q 488 618 423 618 q 653 570 586 618 q 745 448 720 521 q 770 309 770 374 q 745 171 770 244 q 653 49 720 98 q 488 0 586 0 m 488 71 q 576 105 540 71 q 626 196 612 140 q 640 309 640 252 q 626 422 640 366 q 576 513 612 479 q 488 548 540 548 q 369 518 422 548 q 298 437 316 488 l 298 168 q 374 95 323 119 q 488 71 426 71 z "},"q":{"ha":711,"x_min":54,"x_max":770,"o":"m 336 0 q 172 49 239 0 q 79 171 104 98 q 54 309 54 244 q 79 448 54 374 q 172 570 104 521 q 336 618 239 618 q 446 599 401 618 q 526 534 491 579 l 526 567 l 576 617 l 656 617 l 656 -258 l 770 -296 l 770 -331 l 412 -331 l 412 -296 l 526 -258 l 526 71 q 457 19 505 38 q 336 0 410 0 m 336 71 q 450 95 399 71 q 526 168 502 119 l 526 437 q 456 518 509 488 q 336 548 403 548 q 249 513 285 548 q 199 422 213 479 q 184 309 184 366 q 199 196 184 252 q 249 105 213 140 q 336 71 285 71 z "},"r":{"ha":760,"x_min":54,"x_max":705,"o":"m 54 0 l 54 35 l 168 73 l 168 548 l 54 583 l 54 617 l 248 617 l 298 567 l 298 530 q 424 589 349 560 q 578 618 500 618 q 648 607 616 618 q 693 575 680 595 q 705 537 705 556 q 692 486 705 507 q 650 452 678 464 q 585 439 621 439 q 535 454 559 439 q 500 489 512 468 q 480 541 488 509 q 395 520 441 541 q 298 465 350 499 l 298 73 l 412 35 l 412 0 l 54 0 z "},"s":{"ha":608,"x_min":54,"x_max":553,"o":"m 84 0 l 54 30 l 54 203 l 109 203 l 109 160 q 164 96 114 121 q 279 71 214 71 q 363 81 334 71 q 408 111 393 92 q 423 149 423 130 q 420 178 423 165 q 404 206 416 191 q 305 275 374 244 q 154 334 236 307 q 75 384 96 353 q 54 456 54 415 q 87 557 54 521 q 175 606 119 593 q 279 618 231 618 q 373 606 334 618 q 434 570 413 593 l 458 618 l 488 589 l 488 456 l 434 456 l 434 495 q 365 536 410 524 q 279 548 320 548 q 220 543 252 548 q 167 522 187 538 q 146 491 146 505 q 162 452 147 465 q 290 396 181 431 q 483 296 399 361 q 553 149 552 237 q 514 56 551 90 q 416 11 477 22 q 279 0 355 0 q 180 14 220 0 q 109 49 140 27 l 84 0 z "},"t":{"ha":665,"x_min":54,"x_max":614,"o":"m 457 0 q 290 47 336 0 q 244 176 244 95 l 244 548 l 54 548 l 54 617 l 244 617 l 244 774 l 201 818 l 201 853 l 327 853 l 374 829 l 374 617 l 610 617 l 610 548 l 374 548 l 374 176 q 395 100 374 130 q 457 71 415 71 q 519 92 490 71 q 571 145 549 114 q 578 154 574 151 q 587 157 582 157 q 604 150 594 157 q 614 125 614 139 q 610 106 613 118 q 547 27 587 54 q 457 0 506 0 z "},"v":{"ha":825,"x_min":54,"x_max":770,"o":"m 399 0 l 125 548 l 90 583 l 54 583 l 54 617 l 315 617 l 245 548 l 412 109 l 579 548 l 510 617 l 770 617 l 770 583 l 735 583 l 700 548 l 426 0 l 399 0 z "},"x":{"ha":819,"x_min":54,"x_max":765,"o":"m 54 0 l 54 35 l 90 35 l 127 73 l 342 309 l 127 545 l 90 583 l 54 583 l 54 617 l 324 617 l 255 548 l 410 377 l 564 548 l 495 617 l 765 617 l 765 583 l 730 583 l 692 545 l 477 309 l 692 73 l 730 35 l 765 35 l 765 0 l 494 0 l 564 71 l 410 241 l 255 71 l 326 0 l 54 0 z "},"z":{"ha":632,"x_min":54,"x_max":578,"o":"m 54 0 l 385 548 l 142 548 l 90 442 l 54 442 l 54 617 l 578 617 l 247 71 l 490 71 l 543 176 l 578 176 l 578 0 l 54 0 z "}}}
